<svg width="57" height="56" viewBox="0 0 57 56" fill="none" xmlns="http://www.w3.org/2000/svg">
<g id="Group 1598">
<path id="Rectangle 2" d="M0.5 18.4995C0.5 12.0241 0.5 8.78635 1.7602 6.31306C2.86871 4.1375 4.6375 2.36871 6.81306 1.2602C9.28635 0 12.5241 0 18.9995 0H38.0005C44.4759 0 47.7136 0 50.1869 1.2602C52.3625 2.36871 54.1313 4.1375 55.2398 6.31306C56.5 8.78635 56.5 12.0241 56.5 18.4995V37.5005C56.5 43.9759 56.5 47.2136 55.2398 49.6869C54.1313 51.8625 52.3625 53.6313 50.1869 54.7398C47.7136 56 44.4759 56 38.0005 56H18.9995C12.5241 56 9.28635 56 6.81306 54.7398C4.6375 53.6313 2.86871 51.8625 1.7602 49.6869C0.5 47.2136 0.5 43.9759 0.5 37.5005V18.4995Z" fill="#FDF7D3"/>
<g id="Group 1597" opacity="0.9">
<g id="Wea">
<path id="Vector" d="M43.1918 27.2545C43.675 27.1298 44.1157 26.949 44.5136 26.712C44.8754 26.5043 45.1827 26.2663 45.4347 25.9979L45.3328 27.3846C45.3303 27.4185 45.3558 27.4479 45.3898 27.4503L47.4706 27.5955C47.5046 27.5978 47.5341 27.5722 47.5366 27.5383L48.2885 17.3012C48.291 17.2673 48.2655 17.2379 48.2315 17.2355L46.1506 17.0904C46.1167 17.088 46.0872 17.1136 46.0847 17.1475L45.9843 18.5148C45.8118 18.229 45.5964 17.9687 45.3382 17.7337C45.0199 17.4189 44.6363 17.1666 44.1881 16.9764C43.739 16.7858 43.2377 16.6716 42.6849 16.633C41.7539 16.5681 40.8921 16.7394 40.1011 17.1478L40.1011 17.1478L40.1007 17.148C39.3235 17.5571 38.6826 18.1542 38.1778 18.9379L38.1776 18.9382C37.6863 19.7111 37.4034 20.6163 37.3273 21.652C37.2522 22.6749 37.4 23.6099 37.7721 24.4558C38.1436 25.3002 38.6699 25.9852 39.3512 26.5093L39.3517 26.5096C40.0472 27.035 40.8351 27.3286 41.7139 27.3899C42.2271 27.4257 42.7199 27.3807 43.1918 27.2545ZM43.1918 27.2545C43.1916 27.2545 43.1915 27.2545 43.1914 27.2546L43.1762 27.1949M43.1918 27.2545C43.1918 27.2545 43.1919 27.2545 43.1919 27.2544L43.1762 27.1949M43.1762 27.1949C43.6545 27.0715 44.09 26.8928 44.4826 26.6589L39.3889 26.4604C40.0749 26.9786 40.8514 27.268 41.7184 27.3284C42.2253 27.3638 42.7112 27.3193 43.1762 27.1949ZM45.5058 20.4672L45.5058 20.4672L45.5063 20.4683C45.7436 20.9974 45.839 21.5883 45.7909 22.2424C45.7419 22.9096 45.5601 23.4945 45.2467 23.9984L45.2464 23.9989C44.947 24.4911 44.5516 24.8666 44.0597 25.1267C43.5688 25.3862 43.0159 25.4953 42.3992 25.4523C41.7962 25.4102 41.2716 25.2261 40.8235 24.9011C40.388 24.5764 40.0512 24.1498 39.8133 23.6197C39.59 23.0783 39.5021 22.4745 39.5511 21.8071C39.5992 21.1528 39.7734 20.5805 40.0725 20.0887C40.3854 19.5969 40.7812 19.2213 41.2599 18.9603C41.7509 18.7008 42.297 18.5914 42.9 18.6335C43.5167 18.6765 44.048 18.8612 44.496 19.1862C44.9449 19.5119 45.2814 19.9385 45.5058 20.4672Z" fill="url(#paint0_radial_31_1861)" stroke="url(#paint1_radial_31_1861)" stroke-width="0.123212" stroke-linejoin="round"/>
<path id="Vector_2" d="M28.457 25.8772L28.4579 25.8778C29.2754 26.3843 30.2295 26.6748 31.3186 26.7508C31.8176 26.7856 32.3277 26.7551 32.8489 26.6596L32.8489 26.6596L32.85 26.6594C33.3845 26.5519 33.8893 26.3962 34.364 26.1921C34.8528 25.9887 35.272 25.7401 35.6205 25.4458C35.644 25.426 35.6494 25.392 35.6331 25.366L34.6972 23.87C34.6882 23.8555 34.6735 23.8455 34.6566 23.8423C34.6398 23.8391 34.6224 23.8431 34.6086 23.8532C34.0595 24.2563 33.5567 24.5236 33.0998 24.6583L33.0992 24.6585C32.6545 24.7944 32.1758 24.8448 31.6623 24.8089C30.9368 24.7583 30.3101 24.5725 29.7804 24.2533C29.2509 23.934 28.8553 23.5095 28.5921 22.9791C28.403 22.5873 28.2949 22.1537 28.2689 21.6775L36.2357 22.2332C36.2691 22.2355 36.2983 22.2108 36.3015 22.1775L36.3845 21.3209L36.3846 21.3206C36.4511 20.5996 36.3854 19.9271 36.1867 19.3039C36.0025 18.6696 35.7037 18.1123 35.2903 17.6329C34.8906 17.1548 34.4026 16.7701 33.827 16.4786C33.2513 16.1736 32.619 15.9973 31.9309 15.9493C31.1499 15.8948 30.4116 15.9818 29.7166 16.2109C29.0359 16.4279 28.4337 16.7696 27.9107 17.2359L27.9106 17.236C27.4021 17.6901 26.9885 18.243 26.6698 18.8941C26.3504 19.5464 26.1613 20.2794 26.1016 21.0922C26.0265 22.1159 26.1956 23.0405 26.6107 23.8641L26.6111 23.8648C27.039 24.688 27.6547 25.3589 28.457 25.8772ZM34.2198 20.362L28.4817 19.9617C28.562 19.7059 28.6635 19.475 28.786 19.2687L28.7863 19.2682C29.0716 18.7768 29.464 18.4221 29.9641 18.202L29.9641 18.202L29.9653 18.2015C30.4671 17.9684 31.0731 17.8749 31.7858 17.9246C32.2302 17.9556 32.6338 18.0797 32.9977 18.2965C33.3623 18.5138 33.6558 18.796 33.8792 19.1435C34.101 19.4886 34.2163 19.8703 34.2251 20.2898L34.2198 20.362ZM26.7251 18.921C27.0406 18.2766 27.4494 17.7302 27.9516 17.2818L28.4905 25.8254C27.6969 25.3127 27.0887 24.6497 26.6658 23.8362C26.2562 23.0237 26.0886 22.1104 26.1631 21.0965C26.2223 20.2905 26.4096 19.5654 26.7251 18.921Z" fill="url(#paint2_radial_31_1861)" stroke="url(#paint3_radial_31_1861)" stroke-width="0.123212" stroke-linejoin="round"/>
</g>
<g id="Up">
<path id="Vector_3" d="M35.7527 45.8539C35.7197 45.8619 35.6857 45.8417 35.6768 45.8088L31.9923 32.1081C31.9835 32.0753 32.0031 32.0422 32.0362 32.0342L34.058 31.5477C34.0911 31.5397 34.1251 31.5599 34.1339 31.5928L34.458 32.7978C34.509 32.6934 34.5692 32.5882 34.6384 32.4824C34.9134 32.0449 35.2852 31.6578 35.7528 31.3208C36.231 30.9677 36.753 30.7229 37.3184 30.5868C38.2483 30.363 39.1341 30.3808 39.9743 30.6421C40.8133 30.903 41.5447 31.3619 42.1678 32.0176C42.7918 32.6742 43.2347 33.4922 43.4975 34.4694C43.757 35.4344 43.7811 36.3528 43.5682 37.2236M35.7527 45.8539L43.5079 37.2082M35.7527 45.8539L37.7745 45.3673C37.8076 45.3594 37.8273 45.3263 37.8184 45.2934L36.4312 40.135M35.7527 45.8539L36.3548 40.0882C36.3798 40.1039 36.4053 40.1195 36.4312 40.135M43.5682 37.2236C43.5682 37.2237 43.5682 37.2237 43.5682 37.2238L43.5079 37.2082M43.5682 37.2236C43.5682 37.2235 43.5682 37.2235 43.5683 37.2235L43.5079 37.2082M43.5682 37.2236C43.3651 38.0783 42.9626 38.8165 42.361 39.4372L42.3605 39.4378C41.7546 40.0469 40.9986 40.46 40.0942 40.6776C39.4904 40.823 38.8761 40.8518 38.2517 40.7641L38.2505 40.7639C37.6245 40.6641 37.0652 40.4817 36.5736 40.2158C36.5247 40.1894 36.4772 40.1624 36.4312 40.135M43.5079 37.2082C43.3072 38.0527 42.9098 38.7814 42.3157 39.3944C41.7183 39.995 40.9725 40.4029 40.0782 40.6181C39.482 40.7616 38.8756 40.7901 38.259 40.7035C37.639 40.6047 37.0869 40.4243 36.6024 40.1623C36.5349 40.1258 36.4702 40.0883 36.4083 40.0499L36.4312 40.135M34.444 32.9829L34.4176 32.8847L34.444 32.9829ZM34.444 32.9829C34.4562 32.9524 34.4692 32.9218 34.4831 32.8911L34.444 32.9829ZM40.614 33.4305L40.614 33.4306L40.6153 33.432C41.0076 33.8359 41.2873 34.345 41.4531 34.9614C41.6188 35.5778 41.6321 36.1578 41.4946 36.7027C41.3568 37.2486 41.0965 37.7142 40.7134 38.1007C40.3313 38.4863 39.8481 38.75 39.2619 38.8911C38.6624 39.0354 38.0983 39.0235 37.568 38.8576C37.0364 38.6913 36.5724 38.4 36.1756 37.9827C35.7796 37.5663 35.4982 37.0508 35.3325 36.4344C35.1667 35.818 35.1535 35.2379 35.2909 34.6931C35.4287 34.1474 35.6904 33.6883 36.0762 33.3143L36.0762 33.3143L36.077 33.3135C36.459 32.9281 36.9486 32.6626 37.5481 32.5184C38.1475 32.3741 38.7116 32.386 39.2419 32.5519C39.7733 32.7181 40.2304 33.0107 40.614 33.4305Z" fill="url(#paint4_radial_31_1861)" stroke="url(#paint5_radial_31_1861)" stroke-width="0.123212" stroke-linejoin="round"/>
<path id="Vector_4" d="M21.2511 45.3287L21.251 45.3286C20.3687 45.2304 19.7392 44.9369 19.3112 44.4754C18.8839 44.0146 18.6647 43.3941 18.587 42.6553C18.4318 41.1813 18.8375 39.2072 19.3197 37.0114L19.3198 37.0111C19.3499 36.8771 19.3823 36.7367 19.4158 36.5916C19.5932 35.8231 19.801 34.923 19.8572 34.1483C19.8906 33.6875 19.8696 33.2786 19.7611 32.9713C19.6539 32.6677 19.4637 32.468 19.1543 32.4084C18.8463 32.349 18.5865 32.4747 18.3607 32.7302C18.1335 32.9873 17.9471 33.3696 17.7927 33.8033C17.5476 34.4917 17.3881 35.2927 17.2686 35.8931C17.2375 36.0493 17.2091 36.1918 17.1827 36.3153C17.1757 36.3476 17.144 36.3679 17.111 36.3613L15.2892 35.9947C15.2728 35.9914 15.2583 35.9817 15.2489 35.9679C15.2396 35.954 15.2362 35.9372 15.2395 35.9211C15.4996 34.6686 15.9489 33.1991 16.6664 32.098C17.3841 30.9966 18.3802 30.251 19.7313 30.4836L19.7315 30.4836C20.5556 30.6285 21.1016 30.9949 21.4443 31.5032C21.7854 32.0092 21.9204 32.6487 21.9382 33.3333C21.9676 34.4612 21.6783 35.733 21.4421 36.7717C21.3921 36.9916 21.3444 37.2011 21.3027 37.3965L21.242 37.3826M21.2511 45.3287L26.8637 31.9445C27.3999 31.9814 27.1535 34.2182 26.9999 35.6119C26.9673 35.9083 26.9388 36.1667 26.923 36.3575L26.8612 36.3511C26.8612 36.3511 26.8612 36.3511 26.8612 36.3511C26.8468 36.5235 26.8286 36.7152 26.809 36.9218C26.7121 37.9407 26.5807 39.3232 26.7077 40.5475C26.7842 41.2839 26.9546 41.9707 27.2878 42.4896C27.6231 43.0118 28.1222 43.3619 28.8451 43.4212L28.8452 43.4212C30.0614 43.5175 30.9279 43.0787 31.519 42.3378C32.1075 41.6001 32.4202 40.567 32.5436 39.4754C32.5455 39.4587 32.5403 39.4419 32.5293 39.4288C32.5184 39.4157 32.5025 39.4075 32.4855 39.4062L30.5947 39.2575C30.5621 39.2549 30.5337 39.2777 30.5297 39.3095C30.4379 40.0355 30.3138 40.6098 30.12 40.9872C30.0235 41.1753 29.9118 41.3101 29.7823 41.3916C29.6542 41.4723 29.5042 41.5035 29.3236 41.4767L29.3233 41.4767C29.0443 41.4369 28.8558 41.2131 28.7358 40.8456C28.6162 40.4791 28.5719 39.9887 28.5705 39.4562C28.5685 38.6764 28.6579 37.8213 28.7275 37.1552C28.753 36.9115 28.7758 36.6931 28.7906 36.5129L28.7906 36.5127C28.8169 36.1785 28.8466 35.8443 28.8759 35.5141C28.9201 35.0159 28.9636 34.5266 28.9937 34.0594C29.0438 33.2818 29.0575 32.5581 28.9766 31.9424C28.8957 31.3276 28.7193 30.8117 28.3815 30.458C28.0411 30.1017 27.5461 29.9194 26.8507 29.9534L26.8505 29.9534C26.1654 29.989 25.6564 30.2881 25.2772 30.75C24.8997 31.2099 24.6517 31.8301 24.4815 32.5099C24.2322 33.5055 24.1469 34.6443 24.074 35.6175C24.0475 35.971 24.0226 36.3027 23.9922 36.5977L23.9922 36.5978C23.9758 36.7582 23.9588 36.9408 23.9401 37.1405C23.8517 38.0874 23.7274 39.4189 23.4732 40.5902C23.3192 41.2996 23.1186 41.9449 22.8524 42.4084C22.5854 42.8732 22.2624 43.1391 21.8681 43.1277C21.62 43.1195 21.4218 43.0582 21.2637 42.956C21.1055 42.8537 20.9837 42.708 20.8926 42.5254C20.7093 42.1577 20.6527 41.6455 20.675 41.0594C20.7122 40.0819 20.967 38.9261 21.1817 37.9516C21.2243 37.7585 21.2653 37.5726 21.3027 37.3965L21.242 37.3826M21.2511 45.3287C22.2734 45.4416 23.0693 45.1204 23.6888 44.5332C24.3061 43.9481 24.7464 43.1008 25.0669 42.162C25.6539 40.4426 25.8453 38.3959 25.9724 37.0369C25.984 36.9122 25.9952 36.7933 26.006 36.6809L21.2511 45.3287ZM21.242 37.3826C21.2841 37.1856 21.332 36.9749 21.3822 36.7542C21.9047 34.4557 22.676 31.0632 19.722 30.5439L26.8552 30.0146C24.5471 30.1342 24.3085 33.3195 24.1363 35.6183C24.1097 35.9733 24.0847 36.3071 24.0538 36.6053C24.0376 36.7649 24.0206 36.947 24.002 37.1462C23.8067 39.239 23.4337 43.2346 21.8675 43.1889C19.9771 43.1268 20.6495 40.0765 21.1215 37.9355C21.164 37.7429 21.2048 37.5577 21.242 37.3826Z" fill="url(#paint6_radial_31_1861)" stroke="url(#paint7_radial_31_1861)" stroke-width="0.123212" stroke-linejoin="round"/>
</g>
<path id="W" d="M11.0189 21.3642C11.0757 18.8462 11.6865 15.9027 12.9817 13.5015C12.9898 13.4864 12.9912 13.4685 12.9855 13.4522C12.9798 13.436 12.9676 13.4227 12.9517 13.4158L11.0801 12.5948C11.051 12.582 11.0172 12.5932 11.0018 12.6206C9.71539 14.9068 8.89855 18.3695 8.86758 21.5382C8.83662 23.6556 9.15526 25.6479 9.91889 27.0519C10.3011 27.7547 10.7962 28.3126 11.4171 28.6632C12.0387 29.0142 12.7817 29.1549 13.6542 29.0307L13.6543 29.0307C15.1153 28.8201 16.273 27.6168 17.1481 26.3786C18.3704 27.4617 19.647 27.6542 20.6062 27.5752L20.6064 27.5752C22.2523 27.4342 23.4239 26.3122 24.1654 24.6992C24.9067 23.0868 25.2233 20.9749 25.1584 18.8287C25.1161 17.1758 24.8428 15.5017 24.355 14.0218C23.8674 12.5424 23.1641 11.253 22.2588 10.3738C22.235 10.3507 22.1973 10.3502 22.1734 10.3728L20.7062 11.7541C20.694 11.7655 20.6871 11.7815 20.687 11.7983C20.687 11.8151 20.6939 11.8313 20.706 11.843C21.2871 12.4028 21.7838 13.3306 22.1623 14.4548C22.5403 15.5775 22.7983 16.8899 22.9059 18.2128L22.9059 18.2136C23.07 19.9675 22.977 21.735 22.5739 23.0895C22.1697 24.4476 21.4621 25.3677 20.412 25.4764C19.5424 25.5649 18.8481 25.1261 18.2543 24.4404C18.9903 22.9182 19.6795 20.8008 20.0264 18.7648L20.0265 18.7641C20.2837 17.1384 20.304 15.5618 19.8982 14.3981C19.695 13.8151 19.3837 13.3325 18.9387 13.0007C18.4932 12.6686 17.9191 12.4916 17.1979 12.5109C15.9213 12.5421 15.0803 13.1976 14.5761 14.2006C14.0741 15.1994 13.9053 16.5427 13.9613 17.9609L13.9614 17.9615C14.078 20.318 14.8218 22.9153 15.7553 24.5724C15.4722 25.0556 15.005 25.6915 14.4804 26.1845C14.2126 26.4361 13.9318 26.6485 13.6549 26.7848C13.3779 26.9212 13.1095 26.9791 12.8632 26.9297C12.2743 26.8033 11.7941 26.1696 11.4696 25.1704C11.1468 24.1766 10.9859 22.844 11.0189 21.3642ZM11.0189 21.3642L10.9572 21.3623L11.0189 21.3642ZM18.0032 17.8838L18.0032 17.884C17.7581 19.4345 17.2759 21.1048 16.9693 21.9836C16.6649 21.1 16.2869 19.5427 16.1454 18.08C16.0704 17.1796 16.0826 16.3258 16.2555 15.6906C16.3419 15.3733 16.4672 15.1148 16.6379 14.9322C16.8071 14.7511 17.023 14.6422 17.2978 14.6254C17.531 14.6154 17.7043 14.6992 17.8336 14.8556C17.9655 15.0153 18.0544 15.2545 18.1046 15.5579C18.2048 16.1644 18.146 16.9998 18.0032 17.8838Z" fill="url(#paint8_radial_31_1861)" stroke="url(#paint9_radial_31_1861)" stroke-width="0.123212" stroke-linejoin="round"/>
</g>
</g>
<defs>
<radialGradient id="paint0_radial_31_1861" cx="0" cy="0" r="1" gradientUnits="userSpaceOnUse" gradientTransform="translate(44.189 22.7699) rotate(146.596) scale(7.4994 8.96283)">
<stop offset="1" stop-color="#F19428"/>
</radialGradient>
<radialGradient id="paint1_radial_31_1861" cx="0" cy="0" r="1" gradientUnits="userSpaceOnUse" gradientTransform="translate(42.6196 22.0408) rotate(94.2005) scale(5.33761 5.2449)">
<stop stop-color="#FBCA43"/>
<stop offset="1" stop-color="#F19428"/>
</radialGradient>
<radialGradient id="paint2_radial_31_1861" cx="0" cy="0" r="1" gradientUnits="userSpaceOnUse" gradientTransform="translate(32.7521 22.0495) rotate(145.633) scale(7.35257 8.86179)">
<stop offset="1" stop-color="#F19428"/>
</radialGradient>
<radialGradient id="paint3_radial_31_1861" cx="0" cy="0" r="1" gradientUnits="userSpaceOnUse" gradientTransform="translate(31.2351 21.3229) rotate(94.2005) scale(5.34738 5.07495)">
<stop stop-color="#FBCA43"/>
<stop offset="1" stop-color="#F19428"/>
</radialGradient>
<radialGradient id="paint4_radial_31_1861" cx="0" cy="0" r="1" gradientUnits="userSpaceOnUse" gradientTransform="translate(40.6898 38.0755) rotate(119.492) scale(8.37641 10.6742)">
<stop offset="1" stop-color="#F19428"/>
</radialGradient>
<radialGradient id="paint5_radial_31_1861" cx="0" cy="0" r="1" gradientUnits="userSpaceOnUse" gradientTransform="translate(38.917 37.6473) rotate(74.9475) scale(7.17943 5.187)">
<stop stop-color="#FBCA43"/>
<stop offset="1" stop-color="#F19428"/>
</radialGradient>
<radialGradient id="paint6_radial_31_1861" cx="0" cy="0" r="1" gradientUnits="userSpaceOnUse" gradientTransform="translate(26.3126 37.3917) rotate(129.994) scale(10.832 13.1148)">
<stop offset="1" stop-color="#F19428"/>
</radialGradient>
<radialGradient id="paint7_radial_31_1861" cx="0" cy="0" r="1" gradientUnits="userSpaceOnUse" gradientTransform="translate(23.7332 37.1136) rotate(74.9475) scale(7.54933 7.83742)">
<stop stop-color="#FBCA43"/>
<stop offset="1" stop-color="#F19428"/>
</radialGradient>
<radialGradient id="paint8_radial_31_1861" cx="0" cy="0" r="1" gradientUnits="userSpaceOnUse" gradientTransform="translate(19.6521 20.3819) rotate(133.136) scale(11.9214 14.3246)">
<stop offset="1" stop-color="#F19428"/>
</radialGradient>
<radialGradient id="paint9_radial_31_1861" cx="0" cy="0" r="1" gradientUnits="userSpaceOnUse" gradientTransform="translate(16.9028 19.8736) rotate(79.5939) scale(8.4028 8.46447)">
<stop stop-color="#FBCA43"/>
<stop offset="1" stop-color="#F19428"/>
</radialGradient>
</defs>
</svg>
