<svg width="42" height="37" viewBox="0 0 42 37" fill="none" xmlns="http://www.w3.org/2000/svg">
<g opacity="0.9">
<path d="M35.2185 17.3284C34.3514 17.268 33.5749 16.9786 32.889 16.4604C32.2164 15.9431 31.6963 15.2666 31.3286 14.4308C30.961 13.5951 30.8144 12.6703 30.8888 11.6563C30.9643 10.6294 31.2445 9.73428 31.7296 8.97109C32.229 8.19583 32.8622 7.60629 33.6293 7.20249C34.4097 6.79961 35.2601 6.63027 36.1805 6.69447C36.7274 6.73262 37.2218 6.84551 37.6639 7.03314C38.106 7.22076 38.4833 7.4692 38.7957 7.77845C39.1225 8.07563 39.3792 8.41366 39.5659 8.79253C39.7659 9.17233 39.8774 9.57208 39.9002 9.99178L39.4514 9.80369L39.6462 7.15181L41.7271 7.29695L40.9752 17.534L38.8943 17.3889L39.0733 14.9515L39.5636 14.8485C39.4578 15.1939 39.2657 15.5267 38.9875 15.847C38.7235 16.1553 38.3885 16.4259 37.9826 16.6589C37.59 16.8928 37.1546 17.0715 36.6763 17.1949C36.2113 17.3193 35.7253 17.3638 35.2185 17.3284ZM35.8947 15.5137C36.5217 15.5574 37.0862 15.4466 37.5884 15.1811C38.0905 14.9156 38.4941 14.5321 38.7991 14.0308C39.1183 13.5173 39.3028 12.9226 39.3524 12.2467C39.4011 11.5837 39.3045 10.9825 39.0626 10.4429C38.834 9.90435 38.4906 9.46882 38.0323 9.13633C37.5741 8.80385 37.0315 8.61574 36.4046 8.57201C35.791 8.52921 35.2331 8.64056 34.7309 8.90605C34.2421 9.17247 33.8385 9.5559 33.5202 10.0563C33.2153 10.5577 33.0384 11.1399 32.9897 11.8029C32.9401 12.4788 33.0291 13.0926 33.2567 13.6442C33.4986 14.1837 33.8421 14.6192 34.287 14.9508C34.7452 15.2833 35.2811 15.4709 35.8947 15.5137Z" stroke="#544342" stroke-width="0.2" stroke-linejoin="round"/>
<path d="M24.8231 16.6891C23.7427 16.6137 22.7985 16.3258 21.9906 15.8252C21.197 15.3125 20.5887 14.6494 20.1658 13.836C19.7562 13.0234 19.5887 12.1102 19.6631 11.0962C19.7223 10.2903 19.9097 9.56511 20.2251 8.92075C20.5406 8.27638 20.9494 7.72999 21.4516 7.28158C21.9681 6.8211 22.5627 6.48366 23.2354 6.26926C23.9224 6.04279 24.6528 5.95654 25.4264 6.01051C26.1067 6.05796 26.7308 6.23215 27.2986 6.53308C27.8674 6.82101 28.3489 7.20085 28.7433 7.6726C29.1511 8.14529 29.4459 8.69503 29.6278 9.32182C29.8239 9.93654 29.8891 10.6009 29.8233 11.315L29.7402 12.1715L21.1566 11.5728L20.8138 9.94176L28.0769 10.4484L27.7524 10.7589L27.7868 10.291C27.7783 9.85918 27.6597 9.46546 27.4311 9.1098C27.2025 8.75413 26.9019 8.46531 26.5294 8.24334C26.1569 8.02137 25.7439 7.89456 25.2904 7.86293C24.5701 7.81268 23.9531 7.90684 23.4395 8.14541C22.9269 8.37097 22.5247 8.7349 22.2331 9.2372C21.9424 9.7265 21.7694 10.3481 21.714 11.1021C21.6615 11.8171 21.7691 12.4517 22.0367 13.0061C22.3054 13.5475 22.7093 13.9807 23.2485 14.3058C23.7877 14.6308 24.4242 14.819 25.1578 14.8701C25.6781 14.9064 26.1645 14.8554 26.6171 14.7171C27.083 14.5798 27.5923 14.3083 28.145 13.9026L29.0809 15.3986C28.7378 15.6882 28.3243 15.9338 27.8402 16.1352C27.3695 16.3375 26.8688 16.4921 26.3381 16.5988C25.8217 16.6934 25.3167 16.7235 24.8231 16.6891Z" stroke="#544342" stroke-width="0.2" stroke-linejoin="round"/>
<path d="M7.12842 19.0157C3.66871 19.5083 2.32676 15.7946 2.38887 11.5478C2.4199 8.37088 3.2392 4.90127 4.52602 2.61427L6.40712 3.43944C5.09988 5.86307 4.48437 8.8314 4.4271 11.3697C4.36054 14.3532 5.07506 16.7568 6.33059 17.0258C7.39393 17.2395 8.75108 15.5834 9.32091 14.5969C8.37987 12.9424 7.62589 10.3239 7.50839 7.94912C7.39621 5.10771 8.18675 2.59677 10.7015 2.53519C13.5549 2.4589 13.9972 5.4867 13.481 8.74819C13.1306 10.8053 12.4313 12.9455 11.6876 14.4724C12.2967 15.1868 13.0207 15.6593 13.9366 15.5661C16.1252 15.3396 16.8287 11.735 16.4981 8.1998C16.2812 5.53189 15.4572 2.90336 14.2682 1.75786L15.7428 0.369587C17.5432 2.11815 18.5534 5.51262 18.6382 8.82454C18.7683 13.1266 17.368 17.2741 14.1193 17.5525C13.1553 17.6319 11.8675 17.4351 10.6385 16.3188C9.75527 17.5817 8.59169 18.8049 7.12842 19.0157ZM9.57981 8.07575C9.73165 9.64609 10.1537 11.3246 10.4698 12.1787C10.7727 11.3496 11.3068 9.54879 11.57 7.88388C11.8575 6.10384 11.812 4.49278 10.796 4.53691C9.62569 4.60797 9.42866 6.26133 9.57981 8.07575Z" stroke="#544342" stroke-width="0.2" stroke-linejoin="round"/>
<path d="M14.7566 35.2676C11.2696 34.8792 11.9145 31.4236 12.8804 27.0254C13.258 25.3447 14.0111 22.6077 12.6649 22.3481C11.3186 22.0884 10.8768 25.1128 10.622 26.3011L8.80028 25.9345C9.31939 23.4349 10.5899 20.0904 13.222 20.5437C16.4598 21.1128 15.2223 25.1336 14.7421 27.3823C14.2913 29.5033 13.3071 33.121 15.3675 33.1886C17.0829 33.2387 17.3669 28.4411 17.5539 26.605C17.7841 24.3762 17.6907 20.1525 20.3553 20.0143C23.0849 19.8807 22.4941 23.1421 22.2288 26.5063C22.1196 27.8407 21.555 31.3574 22.8159 31.537C23.5914 31.6522 23.9076 30.7712 24.0912 29.3183L25.982 29.4669C25.7365 31.6391 24.7398 33.5493 22.3488 33.36C19.5426 33.1297 20.252 28.4109 20.423 26.3573C20.5133 25.269 21.0139 21.989 20.3637 21.9442C19.6684 21.8902 19.612 25.0029 19.4443 26.6733C19.186 29.3516 18.7688 35.7107 14.7566 35.2676Z" stroke="#544342" stroke-width="0.2" stroke-linejoin="round"/>
<path d="M29.2006 35.8456L25.4955 22.0685L27.5406 21.5764L28.1374 23.7955L27.778 23.7048C27.7572 23.316 27.8855 22.911 28.1631 22.4898C28.4373 22.0563 28.8084 21.6716 29.2765 21.3358C29.7543 20.9846 30.275 20.7411 30.8387 20.6054C31.7695 20.3814 32.6534 20.3984 33.4905 20.6564C34.3275 20.9144 35.057 21.3689 35.6787 22.02C36.3004 22.6711 36.7423 23.4836 37.0042 24.4575C37.2628 25.4191 37.2851 26.3326 37.0712 27.1979C36.8671 28.0478 36.4642 28.7814 35.8625 29.3987C35.2575 30.0037 34.5027 30.4151 33.5982 30.6328C32.9952 30.7779 32.382 30.8073 31.7586 30.7211C31.1319 30.6225 30.5738 30.4418 30.0844 30.1789C29.5949 29.916 29.2529 29.6045 29.0584 29.2444L29.5 28.8625L31.2456 35.3534L29.2006 35.8456ZM32.7914 28.9564C33.3945 28.8113 33.8938 28.5402 34.2895 28.143C34.6852 27.7459 34.9544 27.2676 35.0971 26.7082C35.2397 26.1489 35.2265 25.5548 35.0575 24.926C34.8884 24.2973 34.6015 23.7756 34.1969 23.3611C33.8021 22.931 33.3306 22.631 32.7824 22.461C32.2342 22.2911 31.652 22.2802 31.0359 22.4285C30.4197 22.5768 29.9138 22.8495 29.5181 23.2466C29.1191 23.6314 28.8483 24.1035 28.7056 24.6629C28.563 25.2223 28.5762 25.8164 28.7452 26.4451C28.9143 27.0739 29.2028 27.6017 29.6108 28.0286C30.0187 28.4554 30.4967 28.7539 31.0449 28.9239C31.5931 29.0938 32.1753 29.1047 32.7914 28.9564Z" stroke="#544342" stroke-width="0.2" stroke-linejoin="round"/>
<path d="M35.2185 17.3284C34.3514 17.268 33.5749 16.9786 32.889 16.4604C32.2164 15.9431 31.6963 15.2666 31.3286 14.4308C30.961 13.5951 30.8144 12.6703 30.8888 11.6563C30.9643 10.6294 31.2445 9.73428 31.7296 8.97109C32.229 8.19583 32.8622 7.60629 33.6293 7.20249C34.4097 6.79961 35.2601 6.63027 36.1805 6.69447C36.7274 6.73262 37.2218 6.84551 37.6639 7.03314C38.106 7.22076 38.4833 7.4692 38.7957 7.77845C39.1225 8.07563 39.3792 8.41366 39.5659 8.79253C39.7659 9.17233 39.8774 9.57208 39.9002 9.99178L39.4514 9.80369L39.6462 7.15181L41.7271 7.29695L40.9752 17.534L38.8943 17.3889L39.0733 14.9515L39.5636 14.8485C39.4578 15.1939 39.2657 15.5267 38.9875 15.847C38.7235 16.1553 38.3885 16.4259 37.9826 16.6589C37.59 16.8928 37.1546 17.0715 36.6763 17.1949C36.2113 17.3193 35.7253 17.3638 35.2185 17.3284ZM35.8947 15.5137C36.5217 15.5574 37.0862 15.4466 37.5884 15.1811C38.0905 14.9156 38.4941 14.5321 38.7991 14.0308C39.1183 13.5173 39.3028 12.9226 39.3524 12.2467C39.4011 11.5837 39.3045 10.9825 39.0626 10.4429C38.834 9.90435 38.4906 9.46882 38.0323 9.13633C37.5741 8.80385 37.0315 8.61574 36.4046 8.57201C35.791 8.52921 35.2331 8.64056 34.7309 8.90605C34.2421 9.17247 33.8385 9.5559 33.5202 10.0563C33.2153 10.5577 33.0384 11.1399 32.9897 11.8029C32.9401 12.4788 33.0291 13.0926 33.2567 13.6442C33.4986 14.1837 33.8421 14.6192 34.287 14.9508C34.7452 15.2833 35.2811 15.4709 35.8947 15.5137Z" fill="#544342"/>
<path d="M24.8231 16.6891C23.7427 16.6137 22.7985 16.3258 21.9906 15.8252C21.197 15.3125 20.5887 14.6494 20.1658 13.836C19.7562 13.0234 19.5887 12.1102 19.6631 11.0962C19.7223 10.2903 19.9097 9.56511 20.2251 8.92075C20.5406 8.27638 20.9494 7.72999 21.4516 7.28158C21.9681 6.8211 22.5627 6.48366 23.2354 6.26926C23.9224 6.04279 24.6528 5.95654 25.4264 6.01051C26.1067 6.05796 26.7308 6.23215 27.2986 6.53308C27.8674 6.82101 28.3489 7.20085 28.7433 7.6726C29.1511 8.14529 29.4459 8.69503 29.6278 9.32182C29.8239 9.93654 29.8891 10.6009 29.8233 11.315L29.7402 12.1715L21.1566 11.5728L20.8138 9.94176L28.0769 10.4484L27.7524 10.7589L27.7868 10.291C27.7783 9.85918 27.6597 9.46546 27.4311 9.1098C27.2025 8.75413 26.9019 8.46531 26.5294 8.24334C26.1569 8.02137 25.7439 7.89456 25.2904 7.86293C24.5701 7.81268 23.9531 7.90684 23.4395 8.14541C22.9269 8.37097 22.5247 8.7349 22.2331 9.2372C21.9424 9.7265 21.7694 10.3481 21.714 11.1021C21.6615 11.8171 21.7691 12.4517 22.0367 13.0061C22.3054 13.5475 22.7093 13.9807 23.2485 14.3058C23.7877 14.6308 24.4242 14.819 25.1578 14.8701C25.6781 14.9064 26.1645 14.8554 26.6171 14.7171C27.083 14.5798 27.5923 14.3083 28.145 13.9026L29.0809 15.3986C28.7378 15.6882 28.3243 15.9338 27.8402 16.1352C27.3695 16.3375 26.8688 16.4921 26.3381 16.5988C25.8217 16.6934 25.3167 16.7235 24.8231 16.6891Z" fill="#544342"/>
<path d="M29.2368 35.7942L25.5522 22.0935L27.574 21.6069L28.1675 23.8137L27.812 23.7231C27.7908 23.3366 27.9172 22.9341 28.191 22.5158C28.4616 22.0852 28.8281 21.7033 29.2904 21.3701C29.7625 21.0215 30.2771 20.7802 30.8344 20.6461C31.7546 20.4246 32.6288 20.4427 33.457 20.7002C34.2852 20.9578 35.0073 21.4106 35.6231 22.0587C36.239 22.7067 36.6771 23.515 36.9376 24.4836C37.1948 25.4399 37.2182 26.348 37.0079 27.2079C36.8073 28.0525 36.4099 28.7812 35.8158 29.3941C35.2183 29.9948 34.4725 30.4027 33.5782 30.6179C32.9821 30.7614 32.3757 30.7898 31.759 30.7033C31.1391 30.6044 30.5869 30.424 30.1025 30.1621C29.618 29.9001 29.2794 29.59 29.0864 29.2318L29.5226 28.8527L31.2586 35.3076L29.2368 35.7942ZM32.7779 28.9504C33.3741 28.8069 33.8675 28.538 34.2583 28.1438C34.649 27.7495 34.9145 27.2744 35.0548 26.7185C35.1951 26.1626 35.1812 25.572 35.013 24.9468C34.8448 24.3215 34.5604 23.8025 34.1596 23.3899C33.7685 22.9619 33.3018 22.663 32.7594 22.4933C32.217 22.3236 31.6412 22.312 31.0321 22.4586C30.4229 22.6052 29.923 22.8757 29.5323 23.2699C29.1382 23.6519 28.8711 24.1209 28.7308 24.6768C28.5905 25.2327 28.6045 25.8233 28.7726 26.4485C28.9408 27.0738 29.2269 27.5989 29.6309 28.0238C30.035 28.4487 30.5082 28.746 31.0506 28.9157C31.593 29.0854 32.1688 29.097 32.7779 28.9504Z" fill="#544342"/>
<path d="M14.7566 35.2673C11.2696 34.8789 11.9145 31.4233 12.8804 27.0252C13.258 25.3445 14.0111 22.6074 12.6649 22.3478C11.3186 22.0882 10.8768 25.1125 10.622 26.3008L8.80028 25.9343C9.31939 23.4347 10.5899 20.0902 13.222 20.5434C16.4598 21.1126 15.2223 25.1334 14.7421 27.3821C14.2913 29.503 13.3071 33.1208 15.3675 33.1884C17.0829 33.2384 17.3669 28.4409 17.5539 26.6048C17.7841 24.376 17.6907 20.1522 20.3553 20.0141C23.0849 19.8804 22.4941 23.1419 22.2288 26.5061C22.1196 27.8404 21.555 31.3572 22.8159 31.5367C23.5914 31.652 23.9076 30.7709 24.0912 29.318L25.982 29.4667C25.7365 31.6388 24.7398 33.549 22.3488 33.3597C19.5426 33.1295 20.252 28.4106 20.423 26.3571C20.5133 25.2687 21.0139 21.9887 20.3637 21.944C19.6684 21.8899 19.612 25.0027 19.4443 26.6731C19.186 29.3514 18.7688 35.7105 14.7566 35.2673Z" fill="#544342"/>
<path d="M7.14493 18.9695C3.70267 19.4596 2.36748 15.7647 2.42928 11.5392C2.46015 8.37837 3.27532 4.92625 4.55565 2.65078L6.42727 3.47179C5.12662 5.8832 4.51421 8.83657 4.45723 11.3621C4.39101 14.3305 5.10192 16.7221 6.35112 16.9896C7.4091 17.2023 8.75941 15.5545 9.32637 14.573C8.39007 12.9269 7.63989 10.3215 7.52298 7.95874C7.41137 5.13165 8.19792 2.63338 10.7 2.57211C13.5391 2.4962 13.9791 5.50873 13.4655 8.75378C13.1168 10.8006 12.421 12.9299 11.6811 14.4492C12.2871 15.1599 13.0075 15.6301 13.9188 15.5373C16.0964 15.312 16.7963 11.7255 16.4674 8.20815C16.2516 5.5537 15.4317 2.93842 14.2487 1.7987L15.7159 0.417419C17.5072 2.15716 18.5124 5.53452 18.5967 8.82974C18.7261 13.1101 17.3329 17.2368 14.1006 17.5137C13.1415 17.5927 11.8602 17.3969 10.6373 16.2862C9.75854 17.5428 8.60082 18.7597 7.14493 18.9695ZM9.58396 8.08473C9.73504 9.64715 10.1549 11.3172 10.4695 12.167C10.7709 11.3421 11.3022 9.55034 11.5641 7.89383C11.8502 6.12276 11.8049 4.51982 10.7941 4.56373C9.62961 4.63443 9.43358 6.27946 9.58396 8.08473Z" fill="#544342"/>
</g>
</svg>
