<svg width="44" height="38" viewBox="0 0 44 38" fill="none" xmlns="http://www.w3.org/2000/svg">
<g opacity="0.9">
<path d="M38.0751 18.0331C38.5862 17.9012 39.0526 17.71 39.4738 17.459C39.8336 17.2525 40.1428 17.0175 40.4005 16.7537L40.2984 18.1436C40.2948 18.1934 40.3322 18.2366 40.382 18.24L42.5736 18.3929C42.6234 18.3964 42.6667 18.3588 42.6704 18.3091L43.4622 7.52732C43.4659 7.47754 43.4285 7.43437 43.3787 7.43089L41.1871 7.27802C41.1373 7.27455 41.094 7.31209 41.0903 7.36187L40.9903 8.72333C40.8148 8.44659 40.6003 8.19295 40.3471 7.96249C40.0095 7.62869 39.6028 7.36137 39.1283 7.15999C38.6523 6.95797 38.1216 6.83713 37.537 6.79636C36.552 6.72765 35.6396 6.90895 34.8022 7.34129L34.8022 7.34129L34.8015 7.34162C33.9789 7.77468 33.3006 8.40673 32.7667 9.23552L32.7664 9.23599C32.2464 10.0541 31.9474 11.0117 31.867 12.106C31.7876 13.187 31.9438 14.176 32.3376 15.0711C32.7304 15.9641 33.2872 16.689 34.0085 17.2437L34.0091 17.2442C34.7456 17.8006 35.5801 18.1115 36.5105 18.1764C37.0536 18.2143 37.5753 18.1667 38.0751 18.0331ZM38.0751 18.0331C38.075 18.0331 38.0749 18.0331 38.0748 18.0331L38.0525 17.9457M38.0751 18.0331C38.0753 18.033 38.0754 18.033 38.0756 18.0329L38.0525 17.9457M38.0525 17.9457C38.5563 17.8157 39.0149 17.6275 39.4284 17.3811L34.0637 17.172C34.7862 17.7178 35.604 18.0226 36.5171 18.0863C37.051 18.1235 37.5628 18.0766 38.0525 17.9457ZM40.4826 10.8699L40.4826 10.87L40.4833 10.8716C40.7313 11.4246 40.8313 12.0426 40.7809 12.7278C40.7296 13.427 40.5391 14.0388 40.2115 14.5656L40.2111 14.5664C39.8981 15.0809 39.485 15.4731 38.9711 15.7448C38.4588 16.0157 37.8814 16.1299 37.236 16.0848C36.6054 16.0408 36.0576 15.8485 35.5899 15.5093C35.135 15.1701 34.783 14.7244 34.5341 14.17C34.3008 13.604 34.2086 12.9723 34.26 12.273C34.3104 11.5874 34.4928 10.9888 34.8053 10.4747C35.1327 9.96034 35.5463 9.56792 36.0462 9.29532C36.5588 9.02446 37.1291 8.91008 37.7597 8.95407C38.4051 8.99909 38.9599 9.19225 39.4275 9.53147C39.8964 9.87172 40.248 10.3172 40.4826 10.8699Z" fill="#412F2E" stroke="#412F2E" stroke-width="0.180763" stroke-linejoin="round"/>
<path d="M22.5361 16.5768L22.5375 16.5777C23.4025 17.1136 24.4114 17.4206 25.562 17.5009C26.0898 17.5377 26.6292 17.5054 27.1802 17.4045L27.1802 17.4045L27.1817 17.4042C27.7463 17.2907 28.2795 17.1262 28.7812 16.9105C29.298 16.6955 29.7417 16.4324 30.1111 16.1205C30.1455 16.0914 30.1534 16.0415 30.1296 16.0034L29.1439 14.4278C29.1306 14.4066 29.109 14.3918 29.0844 14.3871C29.0597 14.3825 29.0342 14.3883 29.0139 14.4032C28.4371 14.8266 27.9101 15.1064 27.4327 15.2472L27.4318 15.2474C26.9668 15.3895 26.4657 15.4424 25.9277 15.4048C25.1669 15.3518 24.5109 15.157 23.9571 14.8232C23.4033 14.4894 22.9902 14.0458 22.7152 13.4918C22.5215 13.0905 22.4091 12.6468 22.3791 12.1597L30.7407 12.7429C30.7897 12.7463 30.8326 12.71 30.8373 12.6612L30.9248 11.759L30.9248 11.7586C30.9951 10.9963 30.9258 10.2847 30.7154 9.62484C30.5204 8.95356 30.2041 8.36351 29.7664 7.85587C29.3432 7.34976 28.8266 6.94248 28.2176 6.63407C27.608 6.31113 26.9386 6.1246 26.2106 6.07382C25.3851 6.01623 24.6042 6.10818 23.8688 6.35053C23.1486 6.58013 22.5113 6.94177 21.9577 7.43532L21.9576 7.43537C21.4194 7.91597 20.9819 8.50108 20.6448 9.18956C20.3068 9.87985 20.107 10.6551 20.0439 11.514C19.9644 12.5963 20.1432 13.5747 20.5827 14.4467L20.5832 14.4477C21.0361 15.3187 21.6876 16.0286 22.5361 16.5768ZM28.5959 10.7195L22.6101 10.302C22.6926 10.0465 22.7954 9.81534 22.9185 9.60825L22.9185 9.60825L22.9189 9.60746C23.2168 9.09442 23.6259 8.72463 24.1475 8.49512L24.1476 8.49514L24.1492 8.49436C24.6729 8.25111 25.3066 8.15293 26.0541 8.20507C26.5183 8.23746 26.9395 8.36702 27.3192 8.59324C27.6999 8.82009 28.0062 9.1146 28.2392 9.47718C28.4701 9.83632 28.5902 10.2333 28.5995 10.6701L28.5959 10.7195Z" fill="#412F2E" stroke="#412F2E" stroke-width="0.180763" stroke-linejoin="round"/>
<path d="M30.1299 37.5555C30.1428 37.6037 30.1927 37.6333 30.2412 37.6217L32.3706 37.1092C32.4191 37.0975 32.448 37.049 32.435 37.0008L30.9898 31.6268C31.0217 31.6451 31.0542 31.6633 31.0872 31.6812C31.608 31.9628 32.1999 32.1558 32.8617 32.2613L32.8617 32.2613L32.8634 32.2615C33.5243 32.3543 34.1746 32.3238 34.8137 32.17C35.7704 31.9398 36.5708 31.5025 37.2124 30.8575L37.2124 30.8575L37.2132 30.8567C37.8499 30.1998 38.276 29.4184 38.4909 28.514C38.7162 27.5924 38.6905 26.6209 38.4162 25.6009C38.1384 24.568 37.6701 23.7026 37.0095 23.0074C36.3502 22.3137 35.5761 21.8279 34.688 21.5518C33.7981 21.275 32.8604 21.2563 31.8769 21.493C31.2781 21.6371 30.7254 21.8964 30.2191 22.2702C29.7245 22.6267 29.3307 23.0365 29.0392 23.5002C28.9791 23.5921 28.9253 23.6836 28.8781 23.7747L28.5544 22.5711C28.5415 22.5229 28.4916 22.4933 28.4431 22.505L26.3137 23.0175C26.2652 23.0291 26.2363 23.0777 26.2493 23.1259L30.1299 37.5555ZM35.3356 24.5294L35.3356 24.5294L35.3376 24.5315C35.7472 24.9533 36.0398 25.4854 36.2134 26.131C36.387 26.7765 36.4007 27.383 36.2571 27.9522C36.113 28.5231 35.8409 29.0095 35.4407 29.4134C35.0417 29.8159 34.5371 30.0916 33.9238 30.2392C33.2965 30.3901 32.7072 30.3776 32.1537 30.2044C31.5982 30.0306 31.1134 29.7263 30.6985 29.2899C30.2848 28.8549 29.9904 28.3159 29.8168 27.6704C29.6431 27.0248 29.6295 26.4183 29.7731 25.8491C29.9171 25.2786 30.1906 24.7991 30.5935 24.4086L30.5935 24.4086L30.5947 24.4073C30.9934 24.005 31.5047 23.7276 32.132 23.5766C32.7594 23.4256 33.3487 23.4382 33.9022 23.6114C34.4573 23.785 34.9347 24.0906 35.3356 24.5294Z" fill="#412F2E" stroke="#412F2E" stroke-width="0.180763" stroke-linejoin="round"/>
<path d="M14.959 37.0673L14.9589 37.0673C14.0253 36.9633 13.3557 36.6523 12.8995 36.1603C12.4443 35.6694 12.2122 35.0098 12.1299 34.2286C11.966 32.6712 12.3945 30.5878 12.9021 28.2764L12.9022 28.276C12.934 28.1345 12.9682 27.9864 13.0035 27.8335C13.1904 27.024 13.4087 26.0783 13.4677 25.2645C13.5028 24.7803 13.4804 24.3537 13.3678 24.0351C13.2572 23.7219 13.0631 23.5199 12.7487 23.4593C12.436 23.399 12.1707 23.5253 11.9366 23.7902C11.7004 24.0575 11.5054 24.4567 11.3431 24.9125C11.0856 25.6355 10.9182 26.4767 10.7923 27.109C10.7595 27.2738 10.7295 27.4244 10.7015 27.555C10.6914 27.6023 10.6448 27.6322 10.5964 27.6224L8.67769 27.2364C8.6536 27.2315 8.63228 27.2173 8.61855 27.197C8.60482 27.1767 8.59984 27.152 8.60473 27.1284C8.87893 25.8081 9.35286 24.2569 10.111 23.0935C10.8694 21.9296 11.927 21.1347 13.3645 21.3823L13.3648 21.3823C14.2388 21.536 14.8206 21.9253 15.1861 22.4674C15.5492 23.006 15.6918 23.6851 15.7107 24.4084C15.7417 25.5999 15.4361 26.9433 15.1873 28.0372C15.1347 28.2684 15.0846 28.4885 15.0408 28.6937C15.0408 28.6937 15.0408 28.6937 15.0408 28.6938L14.9518 28.6733C14.9126 28.8577 14.8696 29.0528 14.8249 29.2556C14.3278 31.5106 13.6195 34.7231 15.6105 34.7885L14.959 37.0673ZM14.959 37.0673C16.0437 37.1871 16.8893 36.846 17.5467 36.2228C18.201 35.6027 18.6664 34.7061 19.0045 33.7156C19.6237 31.9018 19.8256 29.7432 19.9593 28.3123C19.9716 28.1809 19.9833 28.0556 19.9948 27.9372C20.0306 27.5803 20.0613 27.166 20.0936 26.7312C20.1417 26.0822 20.1932 25.3872 20.2703 24.7681C20.3344 24.2529 20.4151 23.8009 20.5234 23.483C20.5777 23.3235 20.6367 23.2047 20.6991 23.1289C20.7605 23.0542 20.8159 23.0313 20.8675 23.0353L20.8683 23.0354C20.9068 23.0381 20.9505 23.0632 20.9945 23.1505C21.0385 23.238 21.0721 23.3694 21.0944 23.5402C21.1386 23.8799 21.1344 24.3451 21.1054 24.8504C21.0678 25.5067 20.9897 26.2145 20.9263 26.7903C20.8917 27.1041 20.8614 27.3786 20.8443 27.5843C20.8293 27.7653 20.8101 27.9668 20.7894 28.1842C20.6874 29.2571 20.5487 30.7164 20.6828 32.0085C20.7634 32.7858 20.9436 33.5138 21.2976 34.0652C21.6548 34.6215 22.1877 34.9952 22.9578 35.0584L22.9581 35.0585C24.2474 35.1605 25.1681 34.6948 25.7958 33.9081C26.4197 33.1261 26.75 32.0328 26.8802 30.8808C26.8829 30.8564 26.8754 30.8316 26.8592 30.8124C26.8431 30.7932 26.8198 30.7812 26.7949 30.7793L24.8035 30.6227C24.7557 30.6189 24.714 30.6523 24.7081 30.699C24.6115 31.4634 24.4812 32.0645 24.2792 32.4578C24.1788 32.6535 24.0637 32.7915 23.9323 32.8742C23.8029 32.9556 23.6512 32.9876 23.4666 32.9602L23.4661 32.9601C23.1872 32.9204 22.9939 32.697 22.8686 32.3132C22.7439 31.9311 22.6973 31.4178 22.6958 30.8578C22.6937 30.0379 22.7876 29.1398 22.8609 28.4385C22.8878 28.1813 22.9119 27.9506 22.9275 27.7599L22.9275 27.7597C22.9553 27.4082 22.9865 27.0564 23.0174 26.7086C23.064 26.1836 23.1098 25.6677 23.1415 25.1755C23.1943 24.3561 23.2089 23.5919 23.1233 22.9409C23.0378 22.2912 22.851 21.7415 22.4896 21.3631C22.1244 20.9808 21.5948 20.7874 20.857 20.8235L20.8568 20.8235C20.1273 20.8614 19.5849 21.1803 19.1816 21.6716C18.7807 22.16 18.5183 22.8172 18.3386 23.5347C18.0755 24.5855 17.9854 25.7885 17.9086 26.8139C17.8808 27.1857 17.8547 27.5341 17.8227 27.8434L17.8227 27.8436C17.8055 28.0128 17.7875 28.2054 17.7678 28.4159C17.6747 29.4133 17.5439 30.8137 17.2765 32.0457C17.1145 32.7921 16.9039 33.4688 16.6254 33.9536C16.3457 34.4405 16.0124 34.7104 15.6112 34.6987L14.959 37.0673Z" fill="#412F2E" stroke="#412F2E" stroke-width="0.180763" stroke-linejoin="round"/>
<path d="M6.96357 19.9057L6.96342 19.9057C6.03958 20.0372 5.25126 19.8884 4.59112 19.5156C3.93196 19.1433 3.40744 18.5517 3.00317 17.8084C2.1959 16.3241 1.86019 14.2208 1.89281 11.9888C1.92548 8.64824 2.78646 4.99701 4.1438 2.58468C4.16643 2.54445 4.21607 2.52808 4.25871 2.54678L6.22991 3.41147C6.25316 3.42167 6.27115 3.44108 6.2795 3.46499C6.28785 3.4889 6.2858 3.51511 6.27384 3.53727C4.91206 6.06203 4.26945 9.15801 4.20967 11.8069C4.17495 13.3636 4.34425 14.7641 4.68308 15.8072C5.02448 16.8582 5.52607 17.5127 6.13162 17.6428C6.38353 17.6932 6.66021 17.6344 6.94895 17.4923C7.23759 17.3502 7.53121 17.1282 7.81217 16.8642C8.3581 16.3513 8.84523 15.6902 9.1431 15.1845C8.16116 13.4349 7.38032 10.7027 7.25764 8.22339L7.25759 8.22249C7.19855 6.72689 7.37624 5.3072 7.9078 4.24975C8.44238 3.18629 9.3359 2.48947 10.691 2.45625C11.4554 2.43583 12.066 2.62342 12.5406 2.9773C13.0144 3.33059 13.3448 3.84371 13.56 4.46114C13.9895 5.69284 13.9674 7.3583 13.6962 9.07183L13.696 9.07288C13.3315 11.2126 12.6083 13.4378 11.8348 15.0421C12.4549 15.7538 13.1755 16.2032 14.0742 16.1118C15.1641 15.9989 15.9045 15.0435 16.3294 13.6158C16.7527 12.1933 16.8508 10.3353 16.6782 8.49001L16.6781 8.48892C16.565 7.09739 16.2936 5.7172 15.8962 4.53696C15.4981 3.35464 14.9766 2.38194 14.369 1.79654C14.3512 1.77934 14.3411 1.75567 14.3411 1.73102C14.3412 1.70637 14.3513 1.6829 14.3692 1.66605L15.9145 0.211278C15.9496 0.178199 16.0049 0.178849 16.0398 0.212753C16.9972 1.14265 17.7397 2.50482 18.2541 4.06523C18.7687 5.6266 19.0568 7.39233 19.1015 9.13546C19.1015 9.13548 19.1015 9.13549 19.1015 9.1355L19.011 9.13705C19.1473 13.6451 17.68 17.9914 14.2756 18.283L6.96357 19.9057ZM6.96357 19.9057C8.50439 19.6836 9.72374 18.4219 10.644 17.1252L6.96357 19.9057ZM11.5148 8.13626L11.5148 8.13656C11.2633 9.7275 10.7744 11.4387 10.4513 12.3798C10.1357 11.4404 9.75398 9.84538 9.60885 8.3451C9.52996 7.39763 9.54312 6.50205 9.72401 5.83746C9.81435 5.50557 9.94486 5.23764 10.1208 5.04933C10.2947 4.86327 10.516 4.75152 10.7986 4.73418C11.0362 4.72406 11.2109 4.80891 11.3417 4.96728C11.4765 5.13043 11.5691 5.37727 11.6216 5.69481C11.7265 6.32933 11.6651 7.20589 11.5148 8.13626Z" fill="#412F2E" stroke="#412F2E" stroke-width="0.180763" stroke-linejoin="round"/>
</g>
</svg>
