<svg width="56" height="56" viewBox="0 0 56 56" fill="none" xmlns="http://www.w3.org/2000/svg">
<path d="M0 18.4995C0 12.0241 0 8.78635 1.2602 6.31306C2.36871 4.1375 4.1375 2.36871 6.31306 1.2602C8.78635 0 12.0241 0 18.4995 0H37.5005C43.9759 0 47.2136 0 49.6869 1.2602C51.8625 2.36871 53.6313 4.1375 54.7398 6.31306C56 8.78635 56 12.0241 56 18.4995V37.5005C56 43.9759 56 47.2136 54.7398 49.6869C53.6313 51.8625 51.8625 53.6313 49.6869 54.7398C47.2136 56 43.9759 56 37.5005 56H18.4995C12.0241 56 8.78635 56 6.31306 54.7398C4.1375 53.6313 2.36871 51.8625 1.2602 49.6869C0 47.2136 0 43.9759 0 37.5005V18.4995Z" fill="#FDF7D3"/>
<g opacity="0.9">
<path d="M41.2185 27.3284C40.3514 27.268 39.5749 26.9786 38.889 26.4604C38.2164 25.9431 37.6963 25.2666 37.3286 24.4308C36.961 23.5951 36.8144 22.6703 36.8888 21.6563C36.9643 20.6294 37.2445 19.7343 37.7296 18.9711C38.229 18.1958 38.8622 17.6063 39.6293 17.2025C40.4097 16.7996 41.2601 16.6303 42.1805 16.6945C42.7274 16.7326 43.2218 16.8455 43.6639 17.0331C44.106 17.2208 44.4833 17.4692 44.7957 17.7785C45.1225 18.0756 45.3792 18.4137 45.5659 18.7925C45.7659 19.1723 45.8774 19.5721 45.9002 19.9918L45.4514 19.8037L45.6462 17.1518L47.7271 17.297L46.9752 27.534L44.8943 27.3889L45.0733 24.9515L45.5636 24.8485C45.4578 25.1939 45.2657 25.5267 44.9875 25.847C44.7235 26.1553 44.3885 26.4259 43.9826 26.6589C43.59 26.8928 43.1546 27.0715 42.6763 27.1949C42.2113 27.3193 41.7253 27.3638 41.2185 27.3284ZM41.8947 25.5137C42.5217 25.5574 43.0862 25.4466 43.5884 25.1811C44.0905 24.9156 44.4941 24.5321 44.7991 24.0308C45.1183 23.5173 45.3028 22.9226 45.3524 22.2467C45.4011 21.5837 45.3045 20.9825 45.0626 20.4429C44.834 19.9044 44.4906 19.4688 44.0323 19.1363C43.5741 18.8039 43.0315 18.6157 42.4046 18.572C41.791 18.5292 41.2331 18.6406 40.7309 18.9061C40.2421 19.1725 39.8385 19.5559 39.5202 20.0563C39.2153 20.5577 39.0384 21.1399 38.9897 21.8029C38.9401 22.4788 39.0291 23.0926 39.2567 23.6442C39.4986 24.1837 39.8421 24.6192 40.287 24.9508C40.7452 25.2833 41.2811 25.4709 41.8947 25.5137Z" stroke="url(#paint0_radial_178_230)" stroke-width="0.3" stroke-linejoin="round"/>
<path d="M30.8231 26.6891C29.7427 26.6137 28.7985 26.3258 27.9906 25.8252C27.197 25.3125 26.5887 24.6494 26.1658 23.836C25.7562 23.0234 25.5887 22.1102 25.6631 21.0962C25.7223 20.2903 25.9097 19.5651 26.2251 18.9207C26.5406 18.2764 26.9494 17.73 27.4516 17.2816C27.9681 16.8211 28.5627 16.4837 29.2354 16.2693C29.9224 16.0428 30.6527 15.9565 31.4264 16.0105C32.1067 16.058 32.7308 16.2322 33.2986 16.5331C33.8674 16.821 34.3489 17.2008 34.7433 17.6726C35.151 18.1453 35.4459 18.695 35.6277 19.3218C35.8239 19.9365 35.8891 20.6009 35.8233 21.315L35.7402 22.1715L27.1566 21.5728L26.8138 19.9418L34.0769 20.4484L33.7524 20.7589L33.7868 20.291C33.7783 19.8592 33.6597 19.4655 33.4311 19.1098C33.2025 18.7541 32.9019 18.4653 32.5294 18.2433C32.1569 18.0214 31.7439 17.8946 31.2904 17.8629C30.5701 17.8127 29.9531 17.9068 29.4395 18.1454C28.9269 18.371 28.5247 18.7349 28.2331 19.2372C27.9424 19.7265 27.7694 20.3481 27.714 21.1021C27.6615 21.8171 27.7691 22.4517 28.0367 23.0061C28.3054 23.5475 28.7093 23.9807 29.2485 24.3058C29.7877 24.6308 30.4242 24.819 31.1578 24.8701C31.678 24.9064 32.1645 24.8554 32.6171 24.7171C33.083 24.5798 33.5923 24.3083 34.145 23.9026L35.0809 25.3986C34.7378 25.6882 34.3243 25.9338 33.8402 26.1352C33.3695 26.3375 32.8688 26.4921 32.3381 26.5988C31.8217 26.6934 31.3167 26.7235 30.8231 26.6891Z" stroke="url(#paint1_radial_178_230)" stroke-width="0.3" stroke-linejoin="round"/>
<path d="M13.1284 29.0157C9.66871 29.5083 8.32676 25.7946 8.38887 21.5478C8.4199 18.3709 9.2392 14.9013 10.526 12.6143L12.4071 13.4394C11.0999 15.8631 10.4844 18.8314 10.4271 21.3697C10.3605 24.3532 11.0751 26.7568 12.3306 27.0258C13.3939 27.2395 14.7511 25.5834 15.3209 24.5969C14.3799 22.9424 13.6259 20.3239 13.5084 17.9491C13.3962 15.1077 14.1868 12.5968 16.7015 12.5352C19.5549 12.4589 19.9972 15.4867 19.481 18.7482C19.1306 20.8053 18.4313 22.9455 17.6876 24.4724C18.2967 25.1868 19.0207 25.6593 19.9366 25.5661C22.1252 25.3396 22.8287 21.735 22.4981 18.1998C22.2812 15.5319 21.4572 12.9034 20.2682 11.7579L21.7428 10.3696C23.5432 12.1181 24.5534 15.5126 24.6382 18.8245C24.7683 23.1266 23.368 27.2741 20.1193 27.5525C19.1553 27.6319 17.8675 27.4351 16.6385 26.3188C15.7553 27.5817 14.5917 28.8049 13.1284 29.0157ZM15.5798 18.0758C15.7317 19.6461 16.1537 21.3246 16.4698 22.1787C16.7727 21.3496 17.3068 19.5488 17.57 17.8839C17.8575 16.1038 17.812 14.4928 16.796 14.5369C15.6257 14.608 15.4287 16.2613 15.5798 18.0758Z" stroke="url(#paint2_radial_178_230)" stroke-width="0.2" stroke-linejoin="round"/>
<path d="M20.7566 45.2676C17.2696 44.8792 17.9145 41.4236 18.8804 37.0254C19.258 35.3447 20.0111 32.6077 18.6649 32.3481C17.3187 32.0884 16.8768 35.1128 16.622 36.3011L14.8003 35.9345C15.3194 33.4349 16.5899 30.0904 19.222 30.5437C22.4598 31.1128 21.2223 35.1336 20.7421 37.3823C20.2913 39.5033 19.3071 43.121 21.3675 43.1886C23.0829 43.2387 23.3669 38.4411 23.5539 36.605C23.7842 34.3762 23.6907 30.1525 26.3553 30.0143C29.0849 29.8807 28.4941 33.1421 28.2288 36.5063C28.1196 37.8407 27.555 41.3574 28.8159 41.537C29.5914 41.6522 29.9076 40.7712 30.0912 39.3183L31.982 39.4669C31.7365 41.6391 30.7398 43.5493 28.3488 43.36C25.5426 43.1297 26.252 38.4109 26.423 36.3573C26.5133 35.269 27.014 31.989 26.3637 31.9442C25.6684 31.8902 25.612 35.0029 25.4443 36.6733C25.186 39.3516 24.7688 45.7107 20.7566 45.2676Z" stroke="url(#paint3_radial_178_230)" stroke-width="0.3" stroke-linejoin="round"/>
<path d="M35.2006 45.8456L31.4955 32.0685L33.5406 31.5764L34.1374 33.7955L33.778 33.7048C33.7572 33.316 33.8855 32.911 34.1631 32.4898C34.4373 32.0563 34.8084 31.6716 35.2765 31.3358C35.7543 30.9846 36.275 30.7411 36.8387 30.6054C37.7695 30.3814 38.6534 30.3984 39.4905 30.6564C40.3275 30.9144 41.057 31.3689 41.6787 32.02C42.3004 32.6711 42.7423 33.4836 43.0042 34.4575C43.2628 35.4191 43.2852 36.3326 43.0712 37.1979C42.8671 38.0478 42.4642 38.7814 41.8625 39.3987C41.2575 40.0037 40.5028 40.4151 39.5982 40.6328C38.9952 40.7779 38.382 40.8073 37.7586 40.7211C37.1319 40.6225 36.5738 40.4418 36.0844 40.1789C35.5949 39.916 35.2529 39.6045 35.0584 39.2444L35.5 38.8625L37.2456 45.3534L35.2006 45.8456ZM38.7914 38.9564C39.3945 38.8113 39.8938 38.5402 40.2895 38.143C40.6852 37.7459 40.9544 37.2676 41.0971 36.7082C41.2398 36.1489 41.2265 35.5548 41.0575 34.926C40.8884 34.2973 40.6015 33.7756 40.1969 33.3611C39.8021 32.931 39.3306 32.631 38.7824 32.461C38.2342 32.2911 37.652 32.2802 37.0359 32.4285C36.4197 32.5768 35.9138 32.8495 35.5182 33.2466C35.1192 33.6314 34.8483 34.1035 34.7056 34.6629C34.563 35.2223 34.5762 35.8164 34.7452 36.4451C34.9143 37.0739 35.2028 37.6017 35.6108 38.0286C36.0187 38.4554 36.4967 38.7539 37.0449 38.9239C37.5931 39.0938 38.1753 39.1047 38.7914 38.9564Z" stroke="url(#paint4_radial_178_230)" stroke-width="0.3" stroke-linejoin="round"/>
<path d="M41.2185 27.3284C40.3514 27.268 39.5749 26.9786 38.889 26.4604C38.2164 25.9431 37.6963 25.2666 37.3286 24.4308C36.961 23.5951 36.8144 22.6703 36.8888 21.6563C36.9643 20.6294 37.2445 19.7343 37.7296 18.9711C38.229 18.1958 38.8622 17.6063 39.6293 17.2025C40.4097 16.7996 41.2601 16.6303 42.1805 16.6945C42.7274 16.7326 43.2218 16.8455 43.6639 17.0331C44.106 17.2208 44.4833 17.4692 44.7957 17.7785C45.1225 18.0756 45.3792 18.4137 45.5659 18.7925C45.7659 19.1723 45.8774 19.5721 45.9002 19.9918L45.4514 19.8037L45.6462 17.1518L47.7271 17.297L46.9752 27.534L44.8943 27.3889L45.0733 24.9515L45.5636 24.8485C45.4578 25.1939 45.2657 25.5267 44.9875 25.847C44.7235 26.1553 44.3885 26.4259 43.9826 26.6589C43.59 26.8928 43.1546 27.0715 42.6763 27.1949C42.2113 27.3193 41.7253 27.3638 41.2185 27.3284ZM41.8947 25.5137C42.5217 25.5574 43.0862 25.4466 43.5884 25.1811C44.0905 24.9156 44.4941 24.5321 44.7991 24.0308C45.1183 23.5173 45.3028 22.9226 45.3524 22.2467C45.4011 21.5837 45.3045 20.9825 45.0626 20.4429C44.834 19.9044 44.4906 19.4688 44.0323 19.1363C43.5741 18.8039 43.0315 18.6157 42.4046 18.572C41.791 18.5292 41.2331 18.6406 40.7309 18.9061C40.2421 19.1725 39.8385 19.5559 39.5202 20.0563C39.2153 20.5577 39.0384 21.1399 38.9897 21.8029C38.9401 22.4788 39.0291 23.0926 39.2567 23.6442C39.4986 24.1837 39.8421 24.6192 40.287 24.9508C40.7452 25.2833 41.2811 25.4709 41.8947 25.5137Z" fill="url(#paint5_radial_178_230)"/>
<path d="M30.8231 26.6891C29.7427 26.6137 28.7985 26.3258 27.9906 25.8252C27.197 25.3125 26.5887 24.6494 26.1658 23.836C25.7562 23.0234 25.5887 22.1102 25.6631 21.0962C25.7223 20.2903 25.9097 19.5651 26.2251 18.9207C26.5406 18.2764 26.9494 17.73 27.4516 17.2816C27.9681 16.8211 28.5627 16.4837 29.2354 16.2693C29.9224 16.0428 30.6527 15.9565 31.4264 16.0105C32.1067 16.058 32.7308 16.2322 33.2986 16.5331C33.8674 16.821 34.3489 17.2008 34.7433 17.6726C35.151 18.1453 35.4459 18.695 35.6277 19.3218C35.8239 19.9365 35.8891 20.6009 35.8233 21.315L35.7402 22.1715L27.1566 21.5728L26.8138 19.9418L34.0769 20.4484L33.7524 20.7589L33.7868 20.291C33.7783 19.8592 33.6597 19.4655 33.4311 19.1098C33.2025 18.7541 32.9019 18.4653 32.5294 18.2433C32.1569 18.0214 31.7439 17.8946 31.2904 17.8629C30.5701 17.8127 29.9531 17.9068 29.4395 18.1454C28.9269 18.371 28.5247 18.7349 28.2331 19.2372C27.9424 19.7265 27.7694 20.3481 27.714 21.1021C27.6615 21.8171 27.7691 22.4517 28.0367 23.0061C28.3054 23.5475 28.7093 23.9807 29.2485 24.3058C29.7877 24.6308 30.4242 24.819 31.1578 24.8701C31.678 24.9064 32.1645 24.8554 32.6171 24.7171C33.083 24.5798 33.5923 24.3083 34.145 23.9026L35.0809 25.3986C34.7378 25.6882 34.3243 25.9338 33.8402 26.1352C33.3695 26.3375 32.8688 26.4921 32.3381 26.5988C31.8217 26.6934 31.3167 26.7235 30.8231 26.6891Z" fill="url(#paint6_radial_178_230)"/>
<path d="M35.2368 45.7942L31.5522 32.0935L33.574 31.6069L34.1675 33.8137L33.812 33.7231C33.7908 33.3366 33.9172 32.9341 34.191 32.5158C34.4616 32.0852 34.8281 31.7033 35.2904 31.3701C35.7625 31.0215 36.2771 30.7802 36.8344 30.6461C37.7546 30.4246 38.6288 30.4427 39.457 30.7002C40.2852 30.9578 41.0073 31.4106 41.6231 32.0587C42.239 32.7067 42.6771 33.515 42.9376 34.4836C43.1948 35.4399 43.2182 36.348 43.0079 37.2079C42.8073 38.0525 42.4099 38.7812 41.8158 39.3941C41.2183 39.9948 40.4725 40.4027 39.5782 40.6179C38.9821 40.7614 38.3757 40.7898 37.759 40.7033C37.1391 40.6044 36.5869 40.424 36.1025 40.1621C35.618 39.9001 35.2794 39.59 35.0864 39.2318L35.5226 38.8527L37.2586 45.3076L35.2368 45.7942ZM38.7779 38.9504C39.3741 38.8069 39.8675 38.538 40.2583 38.1438C40.649 37.7495 40.9145 37.2744 41.0548 36.7185C41.1951 36.1626 41.1812 35.572 41.013 34.9468C40.8448 34.3215 40.5604 33.8025 40.1596 33.3899C39.7685 32.9619 39.3018 32.663 38.7594 32.4933C38.217 32.3236 37.6412 32.312 37.0321 32.4586C36.4229 32.6052 35.923 32.8757 35.5323 33.2699C35.1382 33.6519 34.8711 34.1209 34.7308 34.6768C34.5905 35.2327 34.6045 35.8233 34.7726 36.4485C34.9408 37.0738 35.2269 37.5989 35.6309 38.0238C36.035 38.4487 36.5082 38.746 37.0506 38.9157C37.593 39.0854 38.1688 39.097 38.7779 38.9504Z" fill="url(#paint7_radial_178_230)"/>
<path d="M20.7566 45.2673C17.2696 44.8789 17.9145 41.4233 18.8804 37.0252C19.258 35.3445 20.0111 32.6074 18.6649 32.3478C17.3187 32.0882 16.8768 35.1125 16.622 36.3008L14.8003 35.9343C15.3194 33.4347 16.5899 30.0902 19.222 30.5434C22.4598 31.1126 21.2223 35.1334 20.7421 37.3821C20.2913 39.503 19.3071 43.1208 21.3675 43.1884C23.0829 43.2384 23.3669 38.4409 23.5539 36.6048C23.7842 34.376 23.6907 30.1522 26.3553 30.0141C29.0849 29.8804 28.4941 33.1419 28.2288 36.5061C28.1196 37.8404 27.555 41.3572 28.8159 41.5367C29.5914 41.652 29.9076 40.7709 30.0912 39.318L31.982 39.4667C31.7365 41.6388 30.7398 43.549 28.3488 43.3597C25.5426 43.1295 26.252 38.4106 26.423 36.3571C26.5133 35.2687 27.014 31.9887 26.3637 31.944C25.6684 31.8899 25.612 35.0027 25.4443 36.6731C25.186 39.3514 24.7688 45.7105 20.7566 45.2673Z" fill="url(#paint8_radial_178_230)"/>
<path d="M13.1449 28.9695C9.70267 29.4596 8.36748 25.7647 8.42928 21.5392C8.46015 18.3784 9.27532 14.9263 10.5556 12.6508L12.4273 13.4718C11.1266 15.8832 10.5142 18.8366 10.4572 21.3621C10.391 24.3305 11.1019 26.7221 12.3511 26.9896C13.4091 27.2023 14.7594 25.5545 15.3264 24.573C14.3901 22.9269 13.6399 20.3215 13.523 17.9587C13.4114 15.1317 14.1979 12.6334 16.7 12.5721C19.5391 12.4962 19.9791 15.5087 19.4655 18.7538C19.1168 20.8006 18.421 22.9299 17.6811 24.4492C18.2871 25.1599 19.0075 25.6301 19.9188 25.5373C22.0964 25.312 22.7963 21.7255 22.4674 18.2081C22.2516 15.5537 21.4317 12.9384 20.2487 11.7987L21.7159 10.4174C23.5072 12.1572 24.5124 15.5345 24.5967 18.8297C24.7261 23.1101 23.3329 27.2368 20.1006 27.5137C19.1415 27.5927 17.8602 27.3969 16.6373 26.2862C15.7585 27.5428 14.6008 28.7597 13.1449 28.9695ZM15.584 18.0847C15.735 19.6472 16.1549 21.3172 16.4695 22.167C16.7709 21.3421 17.3022 19.5503 17.5641 17.8938C17.8502 16.1228 17.8049 14.5198 16.7941 14.5637C15.6296 14.6344 15.4336 16.2795 15.584 18.0847Z" fill="url(#paint9_radial_178_230)"/>
</g>
<defs>
<radialGradient id="paint0_radial_178_230" cx="0" cy="0" r="1" gradientUnits="userSpaceOnUse" gradientTransform="translate(42.1196 22.0408) rotate(94.2005) scale(5.33761 5.2449)">
<stop stop-color="#FBCA43"/>
<stop offset="1" stop-color="#F19428"/>
</radialGradient>
<radialGradient id="paint1_radial_178_230" cx="0" cy="0" r="1" gradientUnits="userSpaceOnUse" gradientTransform="translate(30.7351 21.3226) rotate(94.2005) scale(5.34738 5.07495)">
<stop stop-color="#FBCA43"/>
<stop offset="1" stop-color="#F19428"/>
</radialGradient>
<radialGradient id="paint2_radial_178_230" cx="0" cy="0" r="1" gradientUnits="userSpaceOnUse" gradientTransform="translate(16.4028 19.8735) rotate(79.5939) scale(8.44538 8.50736)">
<stop stop-color="#FBCA43"/>
<stop offset="1" stop-color="#F19428"/>
</radialGradient>
<radialGradient id="paint3_radial_178_230" cx="0" cy="0" r="1" gradientUnits="userSpaceOnUse" gradientTransform="translate(23.2332 37.1133) rotate(74.9475) scale(7.54933 7.83742)">
<stop stop-color="#FBCA43"/>
<stop offset="1" stop-color="#F19428"/>
</radialGradient>
<radialGradient id="paint4_radial_178_230" cx="0" cy="0" r="1" gradientUnits="userSpaceOnUse" gradientTransform="translate(38.4285 37.6458) rotate(74.9475) scale(7.21944 5.2467)">
<stop stop-color="#FBCA43"/>
<stop offset="1" stop-color="#F19428"/>
</radialGradient>
<radialGradient id="paint5_radial_178_230" cx="0" cy="0" r="1" gradientUnits="userSpaceOnUse" gradientTransform="translate(43.6891 22.7699) rotate(146.596) scale(7.4994 8.96283)">
<stop offset="1" stop-color="#F19428"/>
</radialGradient>
<radialGradient id="paint6_radial_178_230" cx="0" cy="0" r="1" gradientUnits="userSpaceOnUse" gradientTransform="translate(32.2522 22.0492) rotate(145.633) scale(7.35257 8.86179)">
<stop offset="1" stop-color="#F19428"/>
</radialGradient>
<radialGradient id="paint7_radial_178_230" cx="0" cy="0" r="1" gradientUnits="userSpaceOnUse" gradientTransform="translate(40.1899 38.0752) rotate(119.492) scale(8.37641 10.6742)">
<stop offset="1" stop-color="#F19428"/>
</radialGradient>
<radialGradient id="paint8_radial_178_230" cx="0" cy="0" r="1" gradientUnits="userSpaceOnUse" gradientTransform="translate(25.8127 37.3913) rotate(129.994) scale(10.832 13.1148)">
<stop offset="1" stop-color="#F19428"/>
</radialGradient>
<radialGradient id="paint9_radial_178_230" cx="0" cy="0" r="1" gradientUnits="userSpaceOnUse" gradientTransform="translate(19.1521 20.3817) rotate(133.136) scale(11.9214 14.3246)">
<stop offset="1" stop-color="#F19428"/>
</radialGradient>
</defs>
</svg>
