<svg width="32" height="32" viewBox="0 0 32 32" fill="none" xmlns="http://www.w3.org/2000/svg">
<rect width="32" height="32" rx="6" fill="#FDF7D3"/>
<path d="M11.9047 27.3284C7.69076 27.9284 6.05624 23.4051 6.1319 18.2324C6.16968 14.363 7.1676 10.1369 8.73495 7.35127L11.0262 8.35626C9.43398 11.3083 8.68429 14.9239 8.61448 18.0155C8.53336 21.6494 9.40377 24.5772 10.933 24.9048C12.2281 25.1651 13.8812 23.1478 14.5752 21.9464C13.4291 19.9312 12.5107 16.7418 12.3676 13.8492C12.2309 10.3883 13.1939 7.32996 16.2568 7.25493C19.7323 7.162 20.271 10.8498 19.6424 14.8224C19.2155 17.328 18.3637 19.9349 17.458 21.7947C18.1998 22.6648 19.0816 23.2403 20.1972 23.1268C22.8629 22.8509 23.7198 18.4604 23.3172 14.1546C23.053 10.905 22.0494 7.70341 20.6012 6.30816L22.3972 4.61719C24.5901 6.74689 25.8205 10.8814 25.9239 14.9154C26.0823 20.1555 24.3768 25.2072 20.4198 25.5463C19.2457 25.6431 17.677 25.4033 16.1802 24.0435C15.1044 25.5818 13.6871 27.0717 11.9047 27.3284ZM14.8906 14.0034C15.0756 15.9161 15.5895 17.9606 15.9747 19.0008C16.3436 17.9911 16.9941 15.7975 17.3146 13.7698C17.6648 11.6015 17.6095 9.63939 16.3719 9.69301C14.9465 9.77971 14.7065 11.7934 14.8906 14.0034Z" stroke="url(#paint0_radial_7_172)" stroke-width="0.4" stroke-linejoin="round"/>
<path d="M11.9249 27.2727C7.73221 27.8696 6.10592 23.3691 6.1812 18.2224C6.2188 14.3725 7.21168 10.1678 8.77109 7.39612L11.0509 8.39611C9.46658 11.3333 8.72066 14.9306 8.65123 18.0066C8.5706 21.6222 9.4365 24.5351 10.958 24.8611C12.2467 25.1202 13.8913 23.1131 14.5821 21.9176C13.4415 19.9125 12.5278 16.7391 12.3854 13.8613C12.2495 10.4179 13.2075 7.37493 16.255 7.30025C19.7132 7.20781 20.249 10.877 19.6236 14.8296C19.1987 17.3228 18.3514 19.9163 17.4501 21.7667C18.1881 22.6324 19.0657 23.2052 20.1757 23.0921C22.8281 22.8177 23.6805 18.4493 23.2799 14.165C23.0171 10.9318 22.0184 7.74641 20.5775 6.35824L22.3645 4.67578C24.5464 6.79489 25.7707 10.9086 25.8734 14.9221C26.031 20.1357 24.3341 25.1621 20.3971 25.4994C19.2289 25.5956 17.6683 25.3572 16.1787 24.0042C15.1084 25.5349 13.6982 27.0171 11.9249 27.2727ZM14.8958 14.0147C15.0797 15.9179 15.5911 17.9519 15.9744 18.987C16.3414 17.9823 16.9886 15.7998 17.3075 13.7822C17.656 11.6251 17.6009 9.67252 16.3697 9.72614C14.9513 9.81216 14.7125 11.816 14.8958 14.0147Z" fill="url(#paint1_radial_7_172)"/>
<defs>
<radialGradient id="paint0_radial_7_172" cx="0" cy="0" r="1" gradientUnits="userSpaceOnUse" gradientTransform="translate(15.8931 16.1931) rotate(79.5939) scale(10.2866 10.3621)">
<stop stop-color="#FBCA43"/>
<stop offset="1" stop-color="#F19428"/>
</radialGradient>
<radialGradient id="paint1_radial_7_172" cx="0" cy="0" r="1" gradientUnits="userSpaceOnUse" gradientTransform="translate(19.2418 16.8124) rotate(133.136) scale(14.5205 17.4476)">
<stop offset="1" stop-color="#F19428"/>
</radialGradient>
</defs>
</svg>
