<svg width="28" height="28" viewBox="0 0 28 28" fill="none" xmlns="http://www.w3.org/2000/svg">
<g id="Symbol.svg">
<path id="Vector" fill-rule="evenodd" clip-rule="evenodd" d="M14.0087 3.6748C8.19766 3.6748 3.5 8.40709 3.5 14.2616C3.5 18.9414 6.50995 22.9027 10.6855 24.3048C11.2076 24.4102 11.3988 24.077 11.3988 23.7967C11.3988 23.5513 11.3816 22.71 11.3816 21.8335C8.45836 22.4646 7.84962 20.5714 7.84962 20.5714C7.37983 19.3445 6.68375 19.0291 6.68375 19.0291C5.72697 18.3806 6.75345 18.3806 6.75345 18.3806C7.81477 18.4507 8.37167 19.4673 8.37167 19.4673C9.31103 21.0797 10.8247 20.6241 11.4337 20.3436C11.5206 19.66 11.7991 19.1868 12.0949 18.924C9.7634 18.6785 7.31035 17.7671 7.31035 13.7006C7.31035 12.5438 7.72765 11.5973 8.38888 10.8612C8.28456 10.5984 7.9191 9.51144 8.49342 8.05669C8.49342 8.05669 9.38073 7.77619 11.3814 9.14339C12.238 8.91165 13.1213 8.79377 14.0087 8.79277C14.896 8.79277 15.8005 8.9156 16.6358 9.14339C18.6366 7.77619 19.524 8.05669 19.524 8.05669C20.0983 9.51144 19.7326 10.5984 19.6283 10.8612C20.3069 11.5973 20.707 12.5438 20.707 13.7006C20.707 17.7671 18.254 18.6609 15.905 18.924C16.2879 19.2569 16.6183 19.8878 16.6183 20.887C16.6183 22.3067 16.6011 23.4461 16.6011 23.7965C16.6011 24.077 16.7926 24.4102 17.3144 24.305C21.49 22.9025 24.5 18.9414 24.5 14.2616C24.5172 8.40709 19.8023 3.6748 14.0087 3.6748Z" fill="#24292F"/>
</g>
</svg>
