<svg width="28" height="28" viewBox="0 0 28 28" fill="none" xmlns="http://www.w3.org/2000/svg">
<g id="GlobeSimple">
<path id="Vector" d="M14 3.5C11.9233 3.5 9.89323 4.11581 8.16652 5.26957C6.4398 6.42332 5.09399 8.0632 4.29927 9.98182C3.50455 11.9004 3.29661 14.0116 3.70176 16.0484C4.1069 18.0852 5.10693 19.9562 6.57538 21.4246C8.04383 22.8931 9.91475 23.8931 11.9516 24.2982C13.9884 24.7034 16.0996 24.4954 18.0182 23.7007C19.9368 22.906 21.5767 21.5602 22.7304 19.8335C23.8842 18.1068 24.5 16.0767 24.5 14C24.4968 11.2162 23.3895 8.54736 21.4211 6.57892C19.4526 4.61048 16.7838 3.50321 14 3.5ZM22.8462 13.1923H18.825C18.6442 9.5062 17.2247 6.89937 16.0606 5.35769C17.8681 5.79174 19.4944 6.78061 20.7115 8.18564C21.9286 9.59067 22.6754 11.3414 22.8473 13.1923H22.8462ZM10.7925 14.8077H17.2076C16.9743 19.0087 14.9632 21.5832 14 22.5817C13.0358 21.5822 11.0257 19.0077 10.7925 14.8077ZM10.7925 13.1923C11.0257 8.9913 13.0368 6.41678 14 5.41827C14.9642 6.42082 16.9743 8.99534 17.2076 13.1923H10.7925ZM11.9394 5.35769C10.7753 6.89937 9.35577 9.5062 9.17505 13.1923H5.15274C5.32458 11.3414 6.0714 9.59067 7.28849 8.18564C8.50557 6.78061 10.1319 5.79174 11.9394 5.35769ZM5.15274 14.8077H9.17505C9.3588 18.4938 10.7753 21.1006 11.9394 22.6423C10.1319 22.2083 8.50557 21.2194 7.28849 19.8144C6.0714 18.4093 5.32458 16.6586 5.15274 14.8077ZM16.0566 22.6423C17.2207 21.1006 18.6372 18.4938 18.8209 14.8077H22.8432C22.6716 16.6581 21.9254 18.4084 20.7091 19.8134C19.4928 21.2183 17.8674 22.2075 16.0606 22.6423H16.0566Z" fill="black"/>
</g>
</svg>
