<svg width="28" height="28" viewBox="0 0 28 28" fill="none" xmlns="http://www.w3.org/2000/svg">
<g id="linkedin_symbol.svg">
<path id="Path 2520" d="M21.393 21.3201H18.2815V16.4953C18.2815 15.3448 18.2607 13.8637 16.6631 13.8637C15.0425 13.8637 14.7946 15.1172 14.7946 16.4115V21.3198H11.683V11.398H14.6701V12.7539H14.7119C15.0109 12.2478 15.4428 11.8315 15.9618 11.5493C16.4808 11.267 17.0674 11.1295 17.6592 11.1512C20.8128 11.1512 21.3943 13.2051 21.3943 15.8772L21.393 21.3201ZM8.17217 10.0418C7.81505 10.0418 7.46591 9.93703 7.16893 9.74063C6.87196 9.54423 6.64049 9.26504 6.50376 8.93837C6.36704 8.6117 6.3312 8.25222 6.40081 7.9054C6.47042 7.55857 6.64234 7.23997 6.89483 6.98988C7.14731 6.7398 7.46902 6.56946 7.81927 6.50041C8.16952 6.43136 8.53258 6.46671 8.86255 6.60197C9.19252 6.73723 9.47456 6.96634 9.67303 7.26032C9.87149 7.5543 9.97746 7.89995 9.97752 8.25356C9.97756 8.48835 9.93089 8.72085 9.84019 8.93778C9.74948 9.15471 9.61653 9.35183 9.44889 9.51788C9.28125 9.68393 9.0822 9.81566 8.86314 9.90555C8.64408 9.99543 8.4093 10.0417 8.17217 10.0418ZM9.72794 21.3201H6.61316V11.398H9.72794V21.3201ZM22.9442 3.60493H5.04962C4.64346 3.60039 4.25208 3.7557 3.96151 4.03673C3.67094 4.31776 3.50496 4.70151 3.5 5.10366V22.8955C3.50479 23.2979 3.67067 23.6819 3.96123 23.9632C4.25179 24.2445 4.64326 24.4001 5.04962 24.3959H22.9442C23.3514 24.4009 23.744 24.2458 24.0357 23.9644C24.3274 23.6831 24.4944 23.2987 24.5 22.8955V5.10238C24.4942 4.69943 24.3271 4.31524 24.0354 4.03422C23.7436 3.7532 23.3512 3.59833 22.9442 3.60365" fill="#0A66C2"/>
</g>
</svg>
