<svg width="921" height="750" viewBox="0 0 921 750" fill="none" xmlns="http://www.w3.org/2000/svg">
<path opacity="0.2" d="M720.633 919.925C909.955 913.975 947.036 702.142 904.181 474.838C872.947 304.658 796.897 126.148 706.893 15.471L614.132 77.3547C706.498 195.172 766.999 348.691 793.689 484.359C825.019 643.829 809.245 779.497 744.708 805.678C689.92 827.1 602.034 750.935 562.423 703.332C597.268 605.746 613.148 458.177 597.313 329.65C576.849 176.131 511.261 48.793 376.408 69.0242C223.335 91.6356 227.909 258.246 285.835 428.426C323.7 535.532 380.967 643.829 434.892 718.803C409.019 762.836 374.76 794.968 324.985 798.538C206.011 806.868 134.889 620.027 119.629 427.236C106.37 282.047 125.901 133.288 178.721 60.6938L87.0571 7.32569e-05C7.20433 110.677 -15.1368 302.278 11.1697 480.789C44.2763 712.853 157.66 922.305 333.721 906.834C385.934 902.074 452.865 879.463 508.101 808.058C567.018 867.562 640.537 922.305 720.633 919.925ZM487.886 355.831C494.398 441.517 487.49 535.532 478.56 584.325C454.668 542.673 409.385 451.037 379.831 364.162C347.904 271.336 335.337 184.461 389.997 177.321C453.15 170.18 479.064 257.055 487.886 355.831Z" fill="white"/>
</svg>
